<?xml version="1.0" encoding="utf-8"?><svg width="66" height="59" viewBox="0 0 66 59" xmlns="http://www.w3.org/2000/svg" xmlns:xlink="http://www.w3.org/1999/xlink"><svg data-name="Layer 1" viewBox="-1 -1 34.68 32.35" width="22" height="21" id="play" y="38"><title>play</title><path fill="#fff" d="M15.16 7v-.57-5.14a1.17 1.17 0 1 1 2.33 0v6.78a1.16 1.16 0 0 1-1.27 1.27H5.88a3.31 3.31 0 0 0-3.53 3.35v12a3.34 3.34 0 0 0 4 3.29 5.24 5.24 0 0 0 2.82-1.34 10.26 10.26 0 0 0 2.55-3.6 1.33 1.33 0 0 1 1.36-.88h6.63a1.27 1.27 0 0 1 1.33.91 9.45 9.45 0 0 0 3.17 4.05 4.37 4.37 0 0 0 3.7.74 3.23 3.23 0 0 0 2.45-3.33V13.6a8.74 8.74 0 0 0-.1-1.67 3.2 3.2 0 0 0-3.29-2.59h-7a1.16 1.16 0 0 1-1.15-1.59 1.07 1.07 0 0 1 1-.74c2.47 0 4.93-.07 7.4 0a6 6 0 0 1 5.48 5.76c0 3.83-.07 7.65 0 11.48a6 6 0 0 1-8.28 5.59 9.44 9.44 0 0 1-4.2-3.54c-.35-.49-.66-1-1-1.55a.47.47 0 0 0-.47-.29h-4.88a.46.46 0 0 0-.47.29 11.27 11.27 0 0 1-3.9 4.44 5.88 5.88 0 0 1-6.63.22 5.79 5.79 0 0 1-2.89-5.16V12.88a6 6 0 0 1 5.91-5.9h9.24z"/><path fill="#fff" d="M4.68 16.31a4.66 4.66 0 1 1 4.67 4.68 4.89 4.89 0 0 1-4.67-4.68zm4.67-2.32a2.33 2.33 0 1 0 2.32 2.35A2.16 2.16 0 0 0 9.34 14zM22.16 15.16v-2.19a1.17 1.17 0 1 1 2.33 0v2.21h2.32a1.165 1.165 0 1 1 0 2.33h-2.33v2.28a1.17 1.17 0 1 1-2.33 0v-.84-1.46H19.8a1.16 1.16 0 0 1-1-1.66 1.13 1.13 0 0 1 1.08-.67h2.3z"/></svg><svg data-name="Layer 1" viewBox="-1 -1 38 38" width="38" height="38" id="youtube"><title>youtube</title><rect width="36" height="36" rx="2.12" ry="2.12" fill="#e53935"/><path d="M12.5 27.01l13-9-13-9" fill="#fff" fill-rule="evenodd"/></svg><svg data-name="Layer 1" viewBox="-1 -1 38 38" width="28" height="28" id="youtube_small" x="38"><title>youtube</title><rect width="36" height="36" rx="2.12" ry="2.12" fill="#e53935"/><path d="M12.5 27.01l13-9-13-9" fill="#fff" fill-rule="evenodd"/></svg></svg>